<svg width="11" height="19" viewBox="0 0 11 19" fill="none" xmlns="http://www.w3.org/2000/svg">
<path d="M2.19728 0.380401L10.6008 8.80187C10.7006 8.90213 10.771 9.01064 10.812 9.12741C10.8537 9.24418 10.8744 9.36924 10.874 9.50257C10.8737 9.6359 10.8524 9.76085 10.8101 9.87741C10.7684 9.99397 10.6975 10.1021 10.5972 10.2019L2.15078 18.6053C1.91685 18.8381 1.62488 18.954 1.27489 18.9531C0.924886 18.9522 0.625207 18.8265 0.375845 18.5758C0.126484 18.3252 0.00222851 18.0332 0.003079 17.6999C0.00392949 17.3665 0.129673 17.0752 0.38031 16.8258L7.74904 9.4946L0.417817 2.12587C0.18508 1.89194 0.0691462 1.60431 0.0700171 1.26298C0.0708897 0.920979 0.196645 0.625298 0.447282 0.375936C0.697919 0.126575 0.989904 0.00231955 1.32324 0.00317004C1.65657 0.00402053 1.94791 0.129764 2.19728 0.380401Z" fill="#FF0707"/>
</svg>
