<svg width="11" height="19" viewBox="0 0 11 19" fill="none" xmlns="http://www.w3.org/2000/svg">
<path d="M8.70092 18.5971L0.297378 10.1757C0.197633 10.0754 0.127243 9.9669 0.0862076 9.85013C0.0445054 9.73336 0.0238244 9.6083 0.0241646 9.47497C0.0245048 9.34164 0.0458237 9.21669 0.0881212 9.10013C0.129752 8.98357 0.200695 8.87542 0.30095 8.77567L8.74742 0.372197C8.98135 0.139459 9.27331 0.0235374 9.62331 0.0244304C9.97331 0.0253234 10.273 0.151088 10.5223 0.401725C10.7717 0.652363 10.896 0.944347 10.8951 1.27768C10.8943 1.61101 10.7685 1.90236 10.5179 2.15172L3.14915 9.48294L10.4804 16.8517C10.7131 17.0856 10.829 17.3732 10.8282 17.7146C10.8273 18.0566 10.7015 18.3522 10.4509 18.6016C10.2003 18.851 9.90829 18.9752 9.57496 18.9744C9.24163 18.9735 8.95028 18.8478 8.70092 18.5971Z" fill="#FFA500"/>
</svg>
