<svg width="18" height="12" viewBox="0 0 18 12" fill="none" xmlns="http://www.w3.org/2000/svg">
<path fill-rule="evenodd" clip-rule="evenodd" d="M6.53033 0.46967C6.82322 0.762563 6.82322 1.23744 6.53033 1.53033L2.81066 5.25L17 5.25C17.4142 5.25 17.75 5.58579 17.75 6C17.75 6.41421 17.4142 6.75 17 6.75L2.81066 6.75L6.53033 10.4697C6.82322 10.7626 6.82322 11.2374 6.53033 11.5303C6.23744 11.8232 5.76256 11.8232 5.46967 11.5303L0.46967 6.53033C0.329018 6.38968 0.25 6.19891 0.25 6C0.25 5.80109 0.329018 5.61032 0.46967 5.46967L5.46967 0.46967C5.76256 0.176777 6.23744 0.176777 6.53033 0.46967Z" fill="black"/>
</svg>
