<svg width="18" height="18" viewBox="0 0 18 18" fill="none" xmlns="http://www.w3.org/2000/svg">
<path d="M10.5 3.00012H15V7.50012H10.5V3.00012Z" stroke="#322F2F" stroke-width="1.2" stroke-linecap="round" stroke-linejoin="round"/>
<path d="M3 10.4999H7.5V14.9999H3V10.4999Z" stroke="#322F2F" stroke-width="1.2" stroke-linecap="round" stroke-linejoin="round"/>
<path d="M10.5 12.7499C10.5 13.3466 10.7371 13.9189 11.159 14.3409C11.581 14.7628 12.1533 14.9999 12.75 14.9999C13.3467 14.9999 13.919 14.7628 14.341 14.3409C14.7629 13.9189 15 13.3466 15 12.7499C15 12.1531 14.7629 11.5808 14.341 11.1589C13.919 10.7369 13.3467 10.4999 12.75 10.4999C12.1533 10.4999 11.581 10.7369 11.159 11.1589C10.7371 11.5808 10.5 12.1531 10.5 12.7499Z" stroke="#322F2F" stroke-width="1.2" stroke-linecap="round" stroke-linejoin="round"/>
<path d="M3 5.25012C3 5.5456 3.0582 5.83818 3.17127 6.11116C3.28434 6.38414 3.45008 6.63218 3.65901 6.84111C3.86794 7.05004 4.11598 7.21578 4.38896 7.32885C4.66194 7.44192 4.95453 7.50012 5.25 7.50012C5.54547 7.50012 5.83806 7.44192 6.11104 7.32885C6.38402 7.21578 6.63206 7.05004 6.84099 6.84111C7.04992 6.63218 7.21566 6.38414 7.32873 6.11116C7.4418 5.83818 7.5 5.5456 7.5 5.25012C7.5 4.95465 7.4418 4.66207 7.32873 4.38908C7.21566 4.1161 7.04992 3.86806 6.84099 3.65913C6.63206 3.4502 6.38402 3.28447 6.11104 3.17139C5.83806 3.05832 5.54547 3.00012 5.25 3.00012C4.95453 3.00012 4.66194 3.05832 4.38896 3.17139C4.11598 3.28447 3.86794 3.4502 3.65901 3.65913C3.45008 3.86806 3.28434 4.1161 3.17127 4.38908C3.0582 4.66207 3 4.95465 3 5.25012Z" stroke="#322F2F" stroke-width="1.2" stroke-linecap="round" stroke-linejoin="round"/>
</svg>
