<svg width="10" height="11" viewBox="0 0 10 11" fill="none" xmlns="http://www.w3.org/2000/svg">
<path d="M1 3C1 2.73479 1.10536 2.48043 1.29289 2.29289C1.48043 2.10536 1.73479 2 2 2H8.00003C8.26525 2 8.51961 2.10536 8.70714 2.29289C8.89468 2.48043 9.00004 2.73479 9.00004 3V9.00003C9.00004 9.26525 8.89468 9.51961 8.70714 9.70714C8.51961 9.89468 8.26525 10 8.00003 10H2C1.73479 10 1.48043 9.89468 1.29289 9.70714C1.10536 9.51961 1 9.26525 1 9.00003V3Z" stroke="#322F2F" stroke-width="0.7" stroke-linecap="round" stroke-linejoin="round"/>
<path d="M7 1V3.00001" stroke="#322F2F" stroke-width="0.7" stroke-linecap="round" stroke-linejoin="round"/>
<path d="M3 1V3.00001" stroke="#322F2F" stroke-width="0.7" stroke-linecap="round" stroke-linejoin="round"/>
<path d="M1 5H9.00004" stroke="#322F2F" stroke-width="0.7" stroke-linecap="round" stroke-linejoin="round"/>
<path d="M2.5 6.5H2.5065" stroke="#322F2F" stroke-width="0.7" stroke-linecap="round" stroke-linejoin="round"/>
<path d="M4.00488 6.5H4.00738" stroke="#322F2F" stroke-width="0.7" stroke-linecap="round" stroke-linejoin="round"/>
<path d="M5.50488 6.5H5.50738" stroke="#322F2F" stroke-width="0.7" stroke-linecap="round" stroke-linejoin="round"/>
<path d="M7.00732 6.5H7.00982" stroke="#322F2F" stroke-width="0.7" stroke-linecap="round" stroke-linejoin="round"/>
<path d="M5.50732 8H5.50982" stroke="#322F2F" stroke-width="0.7" stroke-linecap="round" stroke-linejoin="round"/>
<path d="M2.50488 8H2.50738" stroke="#322F2F" stroke-width="0.7" stroke-linecap="round" stroke-linejoin="round"/>
<path d="M4.00488 8H4.00738" stroke="#322F2F" stroke-width="0.7" stroke-linecap="round" stroke-linejoin="round"/>
</svg>
