<svg width="31" height="18" viewBox="0 0 31 18" fill="none" xmlns="http://www.w3.org/2000/svg">
<path d="M14.4013 1.59721H16.5987C16.7985 1.59721 16.9619 1.75872 16.9619 1.95613V16.0439C16.9619 16.2413 16.7985 16.4028 16.5987 16.4028H14.4013C14.2015 16.4028 14.0381 16.2413 14.0381 16.0439V1.95613C14.0381 1.75872 14.2015 1.59721 14.4013 1.59721ZM30.2736 15.1107C30.2736 14.9133 30.437 14.7517 30.6368 14.7517C30.8366 14.7517 31 14.9133 31 15.1107V17.6411C31 17.8385 30.8366 18 30.6368 18H28.0762C27.8764 18 27.7129 17.8385 27.7129 17.6411C27.7129 17.4437 27.8764 17.2822 28.0762 17.2822H30.2736V15.1107ZM31 2.87139C31 3.06879 30.8366 3.23031 30.6368 3.23031C30.437 3.23031 30.2736 3.06879 30.2736 2.87139V0.717846H28.0762C27.8764 0.717846 27.7129 0.556331 27.7129 0.358923C27.7129 0.161515 27.8764 0 28.0762 0H30.6368C30.8366 0 31 0.161515 31 0.358923V2.87139ZM0 15.1107C0 14.9133 0.163445 14.7517 0.36321 14.7517C0.562976 14.7517 0.726421 14.9133 0.726421 15.1107V17.2822H2.92384C3.12361 17.2822 3.28705 17.4437 3.28705 17.6411C3.28705 17.8385 3.12361 18 2.92384 18H0.36321C0.163445 18 0 17.8385 0 17.6411V15.1107ZM0.726421 2.87139C0.726421 3.06879 0.562976 3.23031 0.36321 3.23031C0.163445 3.23031 0 3.06879 0 2.87139V0.358923C0 0.161515 0.163445 0 0.36321 0H2.92384C3.12361 0 3.28705 0.161515 3.28705 0.358923C3.28705 0.556331 3.12361 0.717846 2.92384 0.717846H0.726421V2.87139ZM26.8049 1.59721H29.0023C29.2021 1.59721 29.3656 1.75872 29.3656 1.95613V16.0439C29.3656 16.2413 29.2021 16.4028 29.0023 16.4028H26.8049C26.6052 16.4028 26.4417 16.2413 26.4417 16.0439V1.95613C26.4417 1.75872 26.6052 1.59721 26.8049 1.59721ZM18.669 16.0439C18.669 16.2413 18.5056 16.4028 18.3058 16.4028C18.106 16.4028 17.9426 16.2413 17.9426 16.0439V1.95613C17.9426 1.75872 18.106 1.59721 18.3058 1.59721C18.5056 1.59721 18.669 1.75872 18.669 1.95613V16.0439ZM20.4124 16.0439C20.4124 16.2413 20.249 16.4028 20.0492 16.4028C19.8494 16.4028 19.686 16.2413 19.686 16.0439V1.95613C19.686 1.75872 19.8494 1.59721 20.0492 1.59721C20.249 1.59721 20.4124 1.75872 20.4124 1.95613V16.0439ZM22.174 16.0439C22.174 16.2413 22.0105 16.4028 21.8108 16.4028C21.611 16.4028 21.4476 16.2413 21.4476 16.0439V1.95613C21.4476 1.75872 21.611 1.59721 21.8108 1.59721C22.0105 1.59721 22.174 1.75872 22.174 1.95613V16.0439ZM23.9356 16.0439C23.9356 16.2413 23.7721 16.4028 23.5723 16.4028C23.3726 16.4028 23.2091 16.2413 23.2091 16.0439V1.95613C23.2091 1.75872 23.3726 1.59721 23.5723 1.59721C23.7721 1.59721 23.9356 1.75872 23.9356 1.95613V16.0439ZM25.6971 16.0439C25.6971 16.2413 25.5337 16.4028 25.3339 16.4028C25.1342 16.4028 24.9707 16.2413 24.9707 16.0439V1.95613C24.9707 1.75872 25.1342 1.59721 25.3339 1.59721C25.5337 1.59721 25.6971 1.75872 25.6971 1.95613V16.0439ZM1.9795 1.59721H4.17692C4.37668 1.59721 4.54013 1.75872 4.54013 1.95613V16.0439C4.54013 16.2413 4.37668 16.4028 4.17692 16.4028H1.9795C1.77973 16.4028 1.61629 16.2413 1.61629 16.0439V1.95613C1.61629 1.75872 1.77973 1.59721 1.9795 1.59721ZM13.0574 16.0439C13.0574 16.2413 12.894 16.4028 12.6942 16.4028C12.4944 16.4028 12.331 16.2413 12.331 16.0439V1.95613C12.331 1.75872 12.4944 1.59721 12.6942 1.59721C12.894 1.59721 13.0574 1.75872 13.0574 1.95613V16.0439ZM11.2958 16.0439C11.2958 16.2413 11.1324 16.4028 10.9326 16.4028C10.7329 16.4028 10.5694 16.2413 10.5694 16.0439V1.95613C10.5694 1.75872 10.7329 1.59721 10.9326 1.59721C11.1324 1.59721 11.2958 1.75872 11.2958 1.95613V16.0439ZM9.55243 16.0439C9.55243 16.2413 9.38899 16.4028 9.18922 16.4028C8.97129 16.4028 8.82601 16.2413 8.82601 16.0439V1.95613C8.82601 1.75872 8.97129 1.59721 9.18922 1.59721C9.38899 1.59721 9.55243 1.75872 9.55243 1.95613V16.0439ZM7.79086 16.0439C7.79086 16.2413 7.62742 16.4028 7.42765 16.4028C7.22789 16.4028 7.06444 16.2413 7.06444 16.0439V1.95613C7.06444 1.75872 7.22789 1.59721 7.42765 1.59721C7.62742 1.59721 7.79086 1.75872 7.79086 1.95613V16.0439ZM6.02929 16.0439C6.02929 16.2413 5.86585 16.4028 5.66608 16.4028C5.46632 16.4028 5.30287 16.2413 5.30287 16.0439V1.95613C5.30287 1.75872 5.46632 1.59721 5.66608 1.59721C5.86585 1.59721 6.02929 1.75872 6.02929 1.95613V16.0439Z" fill="white"/>
</svg>
