<svg width="26" height="23" viewBox="0 0 26 23" fill="none" xmlns="http://www.w3.org/2000/svg">
<mask id="path-1-inside-1_50_1963" fill="white">
<path d="M18.5194 2.75987e-05H18.5338C20.5944 2.75987e-05 22.459 0.893115 23.8044 2.33544L23.8048 2.33591C25.158 3.78072 25.9959 5.77282 25.9998 7.9732V7.97403C25.9999 7.99214 26 8.0136 26 8.03505C26 10.6857 25.237 13.1467 23.9319 15.183L23.9585 15.1391C22.7657 16.9669 21.3023 18.4954 19.6145 19.6941L19.5557 19.7334C17.7376 21.0584 15.6379 22.1479 13.3935 22.8868L13.2282 22.9336L12.9971 23L12.7661 22.9336C10.357 22.1457 8.25826 21.0542 6.36096 19.6723L6.44088 19.7273C4.69427 18.4892 3.23083 16.9608 2.07292 15.1893L2.0381 15.1329C0.761675 13.1415 0 10.6822 0 8.03356C0 8.01001 5.18976e-05 7.98651 0.000181642 7.96301V7.9666C0.0191762 3.58212 3.36356 0.0356219 7.48633 0.0356219C9.66396 0.0356219 11.6244 1.02508 12.9924 2.60454L12.9971 2.61006C14.3627 1.01039 16.3228 0.00786995 18.503 0H18.5043L18.5194 2.75987e-05ZM12.9972 21.0808C15.1378 20.3353 16.9975 19.3493 18.6902 18.1217L18.613 18.1746C22.3608 15.4428 24.2612 12.0078 24.2612 7.97041C24.2602 6.2795 23.6178 4.74842 22.5789 3.63774C21.5453 2.52982 20.1136 1.84422 18.5311 1.84422H18.509C16.5136 1.85068 14.7585 2.94005 13.7349 4.58884L13.7215 4.61168L12.9972 5.77964L12.2705 4.6166C11.2237 2.96589 9.47253 1.89481 7.48633 1.89481C4.32354 1.89481 1.75684 4.61063 1.73317 7.97047V7.97287C1.73317 12.009 3.63361 15.444 7.38137 18.177C8.99687 19.3509 10.8567 20.336 12.8397 21.0329L12.9972 21.0808ZM19.0578 14.0818L17.8655 12.7429C19.0578 11.533 19.8479 7.96409 19.8479 7.96409L19.848 7.95682V7.95434C19.848 7.17353 19.2532 6.54051 18.5194 6.54051C18.517 6.54051 18.5146 6.54051 18.5122 6.54056L18.5033 4.69643C18.5081 4.69637 18.5138 4.69634 18.5195 4.69634C20.2103 4.69634 21.581 6.15499 21.581 7.95431C21.581 7.96039 21.581 7.96646 21.5809 7.97254V7.97157V7.98261C21.5352 10.385 20.5769 12.5401 19.0611 14.0785L19.0578 14.0818Z"/>
</mask>
<path d="M18.5194 2.75987e-05H18.5338C20.5944 2.75987e-05 22.459 0.893115 23.8044 2.33544L23.8048 2.33591C25.158 3.78072 25.9959 5.77282 25.9998 7.9732V7.97403C25.9999 7.99214 26 8.0136 26 8.03505C26 10.6857 25.237 13.1467 23.9319 15.183L23.9585 15.1391C22.7657 16.9669 21.3023 18.4954 19.6145 19.6941L19.5557 19.7334C17.7376 21.0584 15.6379 22.1479 13.3935 22.8868L13.2282 22.9336L12.9971 23L12.7661 22.9336C10.357 22.1457 8.25826 21.0542 6.36096 19.6723L6.44088 19.7273C4.69427 18.4892 3.23083 16.9608 2.07292 15.1893L2.0381 15.1329C0.761675 13.1415 0 10.6822 0 8.03356C0 8.01001 5.18976e-05 7.98651 0.000181642 7.96301V7.9666C0.0191762 3.58212 3.36356 0.0356219 7.48633 0.0356219C9.66396 0.0356219 11.6244 1.02508 12.9924 2.60454L12.9971 2.61006C14.3627 1.01039 16.3228 0.00786995 18.503 0H18.5043L18.5194 2.75987e-05ZM12.9972 21.0808C15.1378 20.3353 16.9975 19.3493 18.6902 18.1217L18.613 18.1746C22.3608 15.4428 24.2612 12.0078 24.2612 7.97041C24.2602 6.2795 23.6178 4.74842 22.5789 3.63774C21.5453 2.52982 20.1136 1.84422 18.5311 1.84422H18.509C16.5136 1.85068 14.7585 2.94005 13.7349 4.58884L13.7215 4.61168L12.9972 5.77964L12.2705 4.6166C11.2237 2.96589 9.47253 1.89481 7.48633 1.89481C4.32354 1.89481 1.75684 4.61063 1.73317 7.97047V7.97287C1.73317 12.009 3.63361 15.444 7.38137 18.177C8.99687 19.3509 10.8567 20.336 12.8397 21.0329L12.9972 21.0808ZM19.0578 14.0818L17.8655 12.7429C19.0578 11.533 19.8479 7.96409 19.8479 7.96409L19.848 7.95682V7.95434C19.848 7.17353 19.2532 6.54051 18.5194 6.54051C18.517 6.54051 18.5146 6.54051 18.5122 6.54056L18.5033 4.69643C18.5081 4.69637 18.5138 4.69634 18.5195 4.69634C20.2103 4.69634 21.581 6.15499 21.581 7.95431C21.581 7.96039 21.581 7.96646 21.5809 7.97254V7.97157V7.98261C21.5352 10.385 20.5769 12.5401 19.0611 14.0785L19.0578 14.0818Z" fill="#E41010"/>
<path d="M18.5194 2.75987e-05L18.4846 19L18.502 19H18.5194V2.75987e-05ZM23.8044 2.33544L9.9106 15.2955L9.93622 15.3229L9.96194 15.3503L23.8044 2.33544ZM23.8048 2.33591L37.6724 -10.6522L37.6599 -10.6656L37.6473 -10.6789L23.8048 2.33591ZM25.9998 7.9732H44.9998V7.95606L44.9998 7.93892L25.9998 7.9732ZM25.9998 7.97403H6.99984V8.02846L7.00015 8.08289L25.9998 7.97403ZM23.9319 15.183L7.6725 5.35286L39.9284 25.4354L23.9319 15.183ZM23.9585 15.1391L40.2179 24.9691L8.04645 4.75602L23.9585 15.1391ZM19.6145 19.6941L30.176 35.4883L30.3985 35.3395L30.6167 35.1845L19.6145 19.6941ZM19.5557 19.7334L8.99419 3.93931L8.67544 4.15246L8.36555 4.37829L19.5557 19.7334ZM13.3935 22.8868L18.5742 41.1668L18.9568 41.0584L19.3345 40.9341L13.3935 22.8868ZM13.2282 22.9336L8.04753 4.65355L8.01447 4.66292L7.98145 4.6724L13.2282 22.9336ZM12.9971 23L7.7504 41.2612L12.9971 42.7687L18.2439 41.2612L12.9971 23ZM12.7661 22.9336L6.85969 40.9923L7.18768 41.0995L7.51935 41.1948L12.7661 22.9336ZM6.36096 19.6723L17.1257 4.016L-4.82518 35.0304L6.36096 19.6723ZM6.44088 19.7273L-4.32388 35.3836L17.4286 4.22661L6.44088 19.7273ZM2.07292 15.1893L-14.0884 25.1799L-13.9623 25.3839L-13.8311 25.5846L2.07292 15.1893ZM2.0381 15.1329L18.1994 5.1423L18.118 5.01061L18.0344 4.88026L2.0381 15.1329ZM0.000181642 7.96301H19.0002L-18.9995 7.85811L0.000181642 7.96301ZM0.000181642 7.9666H-18.9998L19 8.04891L0.000181642 7.9666ZM12.9924 2.60454L27.4991 -9.6656L27.4272 -9.75061L27.3543 -9.83477L12.9924 2.60454ZM12.9971 2.61006L-1.50959 14.8802L12.93 31.9518L27.4475 14.9464L12.9971 2.61006ZM18.503 0V-19H18.4687L18.4344 -18.9999L18.503 0ZM18.5043 0L18.5391 -19L18.5217 -19H18.5043V0ZM12.9972 21.0808L7.46651 39.2581L13.3948 41.0618L19.2467 39.0236L12.9972 21.0808ZM18.6902 18.1217L29.8446 33.5028L7.95802 2.44307L18.6902 18.1217ZM18.613 18.1746L7.42151 2.82041L29.3452 33.8532L18.613 18.1746ZM24.2612 7.97041H43.2612L43.2612 7.95933L24.2612 7.97041ZM22.5789 3.63774L8.68592 16.5986L8.69439 16.6077L8.70287 16.6168L22.5789 3.63774ZM18.509 1.84422V-17.1558H18.4783L18.4475 -17.1557L18.509 1.84422ZM13.7349 4.58884L-2.40715 -5.43291L-2.5467 -5.20814L-2.67993 -4.97957L13.7349 4.58884ZM13.7215 4.61168L29.8683 14.6258L30.0054 14.4048L30.1363 14.1801L13.7215 4.61168ZM12.9972 5.77964L-3.11622 15.8473L13.0569 41.7324L29.1439 15.7938L12.9972 5.77964ZM12.2705 4.6166L28.3839 -5.45109L28.3501 -5.50515L28.316 -5.55898L12.2705 4.6166ZM1.73317 7.97047L-17.2664 7.83664L-17.2668 7.90355V7.97047H1.73317ZM7.38137 18.177L-3.81359 33.5287L-3.80051 33.5382L-3.78742 33.5477L7.38137 18.177ZM12.8397 21.0329L6.54019 38.9582L6.92194 39.0924L7.30905 39.2102L12.8397 21.0329ZM19.0578 14.0818L4.86829 26.7174L18.1239 41.6031L32.358 27.6502L19.0578 14.0818ZM17.8655 12.7429L4.33167 -0.592506L-8.1609 12.0859L3.67607 25.3786L17.8655 12.7429ZM19.8479 7.96409L38.3987 12.0711L38.8188 10.1734L38.846 8.23006L19.8479 7.96409ZM19.848 7.95682L38.8461 8.22279L38.848 8.08981V7.95682H19.848ZM18.5122 6.54056L-0.487618 6.63227L-0.39424 25.9782L18.9469 25.5356L18.5122 6.54056ZM18.5033 4.69643L18.2859 -14.3023L-0.587621 -14.0864L-0.496519 4.78813L18.5033 4.69643ZM21.5809 7.97254H2.58095L40.5803 8.13484L21.5809 7.97254ZM21.5809 7.98261L40.5775 8.34415L40.5809 8.1634V7.98261H21.5809ZM19.0611 14.0785L32.3613 27.647L32.4794 27.5312L32.5955 27.4134L19.0611 14.0785ZM18.5194 19H18.5338V-19H18.5194V19ZM18.5338 19C14.9233 19 11.8745 17.4009 9.9106 15.2955L37.6982 -10.6246C33.0435 -15.6146 26.2656 -19 18.5338 -19V19ZM9.96194 15.3503L9.96238 15.3508L37.6473 -10.6789L37.6468 -10.6794L9.96194 15.3503ZM9.93724 15.324C8.0222 13.2793 7.00464 10.6501 6.99987 8.00748L44.9998 7.93892C44.9871 0.895506 42.2938 -5.71781 37.6724 -10.6522L9.93724 15.324ZM6.99984 7.9732V7.97403H44.9998V7.9732H6.99984ZM7.00015 8.08289C7.00007 8.06857 7.00004 8.05806 7.00002 8.05185C7.00001 8.04527 7 8.03979 7 8.03505H45C45 7.98556 44.9999 7.92697 44.9995 7.86516L7.00015 8.08289ZM7 8.03505C7 7.01069 7.30139 5.91982 7.93543 4.93055L39.9284 25.4354C43.1726 20.3737 45 14.3607 45 8.03505H7ZM40.1914 25.0131L40.2179 24.9691L7.69904 5.30896L7.6725 5.35286L40.1914 25.0131ZM8.04645 4.75602C8.10592 4.66488 8.28491 4.43628 8.61227 4.20377L30.6167 35.1845C34.3197 32.5544 37.4256 29.269 39.8705 25.5221L8.04645 4.75602ZM9.05299 3.89999L8.99419 3.93931L30.1172 35.5276L30.176 35.4883L9.05299 3.89999ZM8.36555 4.37829C8.13523 4.54614 7.80469 4.72354 7.45256 4.83946L19.3345 40.9341C23.4712 39.5723 27.3401 37.5706 30.7458 35.0886L8.36555 4.37829ZM8.21288 4.60669L8.04753 4.65355L18.4088 41.2137L18.5742 41.1668L8.21288 4.60669ZM7.98145 4.6724L7.7504 4.73879L18.2439 41.2612L18.4749 41.1948L7.98145 4.6724ZM18.2439 4.73879L18.0128 4.6724L7.51935 41.1948L7.7504 41.2612L18.2439 4.73879ZM18.6725 4.87497C18.1608 4.70762 17.8426 4.52949 17.5471 4.31424L-4.82518 35.0304C-1.32611 37.5789 2.5532 39.5837 6.85969 40.9923L18.6725 4.87497ZM-4.4038 35.3286L-4.32388 35.3836L17.2056 4.07095L17.1257 4.016L-4.4038 35.3286ZM17.4286 4.22661C17.5257 4.29545 17.6312 4.3844 17.7338 4.49115C17.8362 4.59766 17.9172 4.70263 17.9769 4.79395L-13.8311 25.5846C-11.3816 29.3321 -8.25648 32.5983 -4.54683 35.2279L17.4286 4.22661ZM18.2342 5.19863L18.1994 5.1423L-14.1232 25.1236L-14.0884 25.1799L18.2342 5.19863ZM18.0344 4.88026C18.72 5.94996 19 7.04915 19 8.03356H-19C-19 14.3152 -17.1967 20.333 -13.9582 25.3856L18.0344 4.88026ZM19 8.03356C19 8.03759 19 8.04977 18.9999 8.06791L-18.9995 7.85811C-18.9999 7.92325 -19 7.98242 -19 8.03356H19ZM-18.9998 7.96301V7.9666H19.0002V7.96301H-18.9998ZM19 8.04891C18.9786 12.9945 14.9211 19.0356 7.48633 19.0356V-18.9644C-8.194 -18.9644 -18.9402 -5.83024 -18.9996 7.88429L19 8.04891ZM7.48633 19.0356C3.70763 19.0356 0.570239 17.2834 -1.36947 15.0438L27.3543 -9.83477C22.6785 -15.2332 15.6203 -18.9644 7.48633 -18.9644V19.0356ZM-1.51427 14.8747L-1.50959 14.8802L27.5038 -9.66008L27.4991 -9.6656L-1.51427 14.8747ZM27.4475 14.9464C25.528 17.1948 22.3862 18.9861 18.5716 18.9999L18.4344 -18.9999C10.2594 -18.9704 3.19741 -15.1741 -1.45337 -9.72624L27.4475 14.9464ZM18.503 19H18.5043V-19H18.503V19ZM18.4695 19L18.4846 19L18.5542 -18.9999L18.5391 -19L18.4695 19ZM19.2467 39.0236C23.1398 37.6676 26.6518 35.8183 29.8446 33.5028L7.53576 2.74062C7.41656 2.82707 7.31473 2.88894 7.21501 2.94102C7.11473 2.99341 6.96778 3.06138 6.74764 3.13805L19.2467 39.0236ZM7.95802 2.44307L7.88085 2.4959L29.3452 33.8532L29.4224 33.8004L7.95802 2.44307ZM29.8045 33.5287C37.6271 27.8269 43.2612 19.0403 43.2612 7.97041H5.26122C5.26122 6.87952 5.55182 5.56665 6.21873 4.36164C6.84157 3.23627 7.46782 2.78665 7.42151 2.82041L29.8045 33.5287ZM43.2612 7.95933C43.2574 1.42116 40.762 -4.73658 36.4549 -9.3413L8.70287 16.6168C6.47358 14.2334 5.26307 11.1378 5.26123 7.98149L43.2612 7.95933ZM36.4719 -9.32316C32.1289 -13.9785 25.7841 -17.1558 18.5311 -17.1558V20.8442C14.4431 20.8442 10.9617 19.0381 8.68592 16.5986L36.4719 -9.32316ZM18.5311 -17.1558H18.509V20.8442H18.5311V-17.1558ZM18.4475 -17.1557C9.28545 -17.126 1.73238 -12.1004 -2.40715 -5.43291L29.8769 14.6106C27.7846 17.9805 23.7417 20.8274 18.5706 20.8441L18.4475 -17.1557ZM-2.67993 -4.97957L-2.69325 -4.95674L30.1363 14.1801L30.1497 14.1573L-2.67993 -4.97957ZM-2.42519 -5.40246L-3.14955 -4.23451L29.1439 15.7938L29.8683 14.6258L-2.42519 -5.40246ZM29.1106 -4.28805L28.3839 -5.45109L-3.84289 14.6843L-3.11622 15.8473L29.1106 -4.28805ZM28.316 -5.55898C24.1487 -12.1302 16.6313 -17.1052 7.48633 -17.1052V20.8948C2.31372 20.8948 -1.70133 18.062 -3.77497 14.7922L28.316 -5.55898ZM7.48633 -17.1052C-7.20958 -17.1052 -17.1771 -4.83749 -17.2664 7.83664L20.7327 8.10429C20.6908 14.0588 15.8567 20.8948 7.48633 20.8948V-17.1052ZM-17.2668 7.97047V7.97287H20.7332V7.97047H-17.2668ZM-17.2668 7.97287C-17.2668 19.043 -11.6315 27.8275 -3.81359 33.5287L18.5763 2.82538C18.5284 2.79041 19.1534 3.23887 19.7757 4.36312C20.4421 5.56719 20.7332 6.88022 20.7332 7.97287H-17.2668ZM-3.78742 33.5477C-0.685033 35.802 2.81444 37.6489 6.54019 38.9582L19.1392 3.10763C19.0327 3.07019 18.9169 3.02023 18.8028 2.96036C18.6882 2.90019 18.6022 2.84416 18.5502 2.80633L-3.78742 33.5477ZM7.30905 39.2102L7.46651 39.2581L18.5278 2.9036L18.3704 2.85569L7.30905 39.2102ZM33.2472 1.44616L32.055 0.107325L3.67607 25.3786L4.86829 26.7174L33.2472 1.44616ZM31.3994 26.0784C33.8872 23.5535 35.2428 20.8862 35.8144 19.6928C36.5206 18.2182 37.0163 16.849 37.3353 15.8885C37.6705 14.8794 37.9198 13.9879 38.0843 13.3604C38.1691 13.0373 38.2375 12.7604 38.2893 12.5443C38.3153 12.4358 38.3374 12.3411 38.3556 12.262C38.3647 12.2224 38.3728 12.1866 38.38 12.1547C38.3836 12.1388 38.387 12.1238 38.3901 12.1099C38.3916 12.1029 38.3931 12.0962 38.3946 12.0897C38.3953 12.0865 38.396 12.0833 38.3967 12.0802C38.397 12.0787 38.3975 12.0764 38.3977 12.0756C38.3982 12.0733 38.3987 12.0711 19.8479 7.96409C1.29709 3.8571 1.29758 3.85488 1.29807 3.85266C1.29823 3.85194 1.29872 3.84974 1.29904 3.84829C1.29968 3.8454 1.30032 3.84255 1.30094 3.83975C1.30219 3.83415 1.3034 3.82872 1.30457 3.82346C1.30692 3.81296 1.30912 3.80314 1.31118 3.794C1.3153 3.77573 1.31887 3.76008 1.3219 3.74692C1.32793 3.72069 1.33192 3.70386 1.33398 3.69525C1.33785 3.6791 1.33527 3.6905 1.3273 3.72086C1.30647 3.80029 1.28372 3.87667 1.2723 3.91108C1.24475 3.99402 1.31942 3.74393 1.54217 3.27881C1.6303 3.09481 2.43997 1.32734 4.33167 -0.592506L31.3994 26.0784ZM38.846 8.23006L38.8461 8.22279L0.849866 7.69085L0.849764 7.69812L38.846 8.23006ZM38.848 7.95682V7.95434H0.848004V7.95682H38.848ZM38.848 7.95434C38.848 -2.1889 30.843 -12.4595 18.5194 -12.4595V25.5405C7.66344 25.5405 0.848004 16.536 0.848004 7.95434H38.848ZM18.5194 -12.4595C18.5194 -12.4595 18.5156 -12.4595 18.5111 -12.4595C18.5062 -12.4595 18.4986 -12.4595 18.4894 -12.4595C18.4712 -12.4594 18.442 -12.4594 18.4061 -12.4592C18.3362 -12.4588 18.2204 -12.4577 18.0775 -12.4545L18.9469 25.5356C18.8063 25.5388 18.693 25.5398 18.6255 25.5402C18.5633 25.5406 18.5107 25.5405 18.5194 25.5405V-12.4595ZM37.5119 6.44886L37.503 4.60472L-0.496519 4.78813L-0.487618 6.63227L37.5119 6.44886ZM18.7207 23.6952C18.6376 23.6961 18.569 23.6963 18.5195 23.6963V-14.3037C18.4586 -14.3037 18.3786 -14.3034 18.2859 -14.3023L18.7207 23.6952ZM18.5195 23.6963C8.62102 23.6963 2.581 15.5179 2.581 7.95431H40.581C40.581 -3.20795 31.7996 -14.3037 18.5195 -14.3037V23.6963ZM2.581 7.95431C2.581 7.96088 2.58099 7.9436 2.58103 7.923C2.58108 7.90012 2.58121 7.86026 2.58164 7.81023L40.5803 8.13484C40.5807 8.07873 40.5809 8.0328 40.5809 8.00384C40.581 7.98908 40.581 7.97686 40.581 7.96889C40.581 7.9615 40.581 7.95491 40.581 7.95431H2.581ZM40.5809 7.97254V7.97157H2.58095V7.97254H40.5809ZM2.58095 7.97157V7.98261H40.5809V7.97157H2.58095ZM2.58439 7.62108C2.63147 5.14694 3.6365 2.66206 5.52664 0.74364L32.5955 27.4134C37.5172 22.4181 40.439 15.6231 40.5775 8.34415L2.58439 7.62108ZM5.76079 0.510093L5.75749 0.513324L32.358 27.6502L32.3613 27.647L5.76079 0.510093Z" fill="#FF0808" mask="url(#path-1-inside-1_50_1963)"/>
</svg>
