<svg width="24" height="22" viewBox="0 0 24 22" fill="none" xmlns="http://www.w3.org/2000/svg">
<path d="M4.17906 19.1023C2.95071 18.0468 1.96412 16.7819 1.25026 15.3434C0.55999 13.953 0.152784 12.4598 0.0352026 10.9064C-0.0823785 9.35299 0.0954199 7.81546 0.568544 6.33701C1.05775 4.80749 1.84269 3.40848 2.89818 2.18013C3.20214 1.82638 3.73426 1.7861 4.08801 2.09007C4.44176 2.39404 4.48204 2.92616 4.17808 3.27991C3.27076 4.33583 2.59715 5.53693 2.17659 6.85351C1.77083 8.12409 1.6149 9.44557 1.71597 10.7808C1.81705 12.1161 2.16858 13.4008 2.76249 14.5941C3.37618 15.829 4.22292 16.9151 5.27884 17.8224C6.33475 18.7297 7.53586 19.4033 8.85244 19.8239C10.123 20.2296 11.4445 20.3856 12.7798 20.2845C14.115 20.1834 15.3998 19.8319 16.593 19.238C17.828 18.6243 18.914 17.7775 19.8213 16.7216C20.7286 15.6657 21.4022 14.4646 21.8228 13.148C22.2286 11.8774 22.383 10.5577 22.2834 9.2207C22.1823 7.88544 21.8308 6.60071 21.2369 5.40746C20.6232 4.17249 19.7765 3.08647 18.7206 2.17915C18.3668 1.87518 18.3265 1.34306 18.6305 0.989311C18.9345 0.635561 19.4666 0.595283 19.8203 0.899249C21.0487 1.95473 22.0353 3.21964 22.7491 4.6581C23.4394 6.04849 23.8466 7.54174 23.9642 9.09514C24.0818 10.6485 23.9007 12.1863 23.4291 13.663C22.9399 15.1925 22.1549 16.5915 21.0994 17.8199C20.044 19.0482 18.779 20.0348 17.3406 20.7487C15.952 21.4405 14.4587 21.8477 12.9053 21.9653C11.3519 22.0828 9.81413 21.9017 8.33747 21.4301C6.80641 20.9427 5.40741 20.1578 4.17906 19.1023Z" fill="#292D32"/>
</svg>
