<svg width="8" height="11" viewBox="0 0 8 11" fill="none" xmlns="http://www.w3.org/2000/svg">
<path d="M4.1499 1C4.59491 1 5.02993 1.13196 5.39994 1.37919C5.76995 1.62643 6.05833 1.97783 6.22863 2.38896C6.39893 2.8001 6.44349 3.2525 6.35667 3.68895C6.26985 4.12541 6.05556 4.52632 5.74089 4.84099C5.42622 5.15566 5.02531 5.36995 4.58886 5.45677C4.1524 5.54358 3.7 5.49903 3.28886 5.32873C2.87773 5.15843 2.52633 4.87004 2.2791 4.50003C2.03186 4.13002 1.8999 3.69501 1.8999 3.25L1.90215 3.15235C1.92732 2.57309 2.17513 2.0259 2.5939 1.6249C3.01268 1.22389 3.57009 1.00003 4.1499 1Z" stroke="#322F2F" stroke-width="0.7" stroke-linecap="round" stroke-linejoin="round"/>
<path d="M5.05 6.40002C5.64674 6.40002 6.21903 6.63708 6.64099 7.05903C7.06295 7.48099 7.3 8.05329 7.3 8.65002V9.10002C7.3 9.33872 7.20518 9.56764 7.0364 9.73642C6.86761 9.9052 6.6387 10 6.4 10H1.9C1.66131 10 1.43239 9.9052 1.2636 9.73642C1.09482 9.56764 1 9.33872 1 9.10002V8.65002C1 8.05329 1.23705 7.48099 1.65901 7.05903C2.08097 6.63708 2.65326 6.40002 3.25 6.40002H5.05Z" stroke="#322F2F" stroke-width="0.7" stroke-linecap="round" stroke-linejoin="round"/>
</svg>
