<svg width="57" height="57" viewBox="0 0 57 57" fill="none" xmlns="http://www.w3.org/2000/svg">
<path d="M9.5 19V14.25C9.5 12.9902 10.0004 11.782 10.8912 10.8912C11.782 10.0004 12.9902 9.5 14.25 9.5H19" stroke="#FFA500" stroke-width="3.66667" stroke-linecap="round" stroke-linejoin="round"/>
<path d="M9.5 38V42.75C9.5 44.0098 10.0004 45.218 10.8912 46.1088C11.782 46.9996 12.9902 47.5 14.25 47.5H19" stroke="#FFA500" stroke-width="3.66667" stroke-linecap="round" stroke-linejoin="round"/>
<path d="M38 9.5H42.75C44.0098 9.5 45.218 10.0004 46.1088 10.8912C46.9996 11.782 47.5 12.9902 47.5 14.25V19" stroke="#FFA500" stroke-width="3.66667" stroke-linecap="round" stroke-linejoin="round"/>
<path d="M38 47.5H42.75C44.0098 47.5 45.218 46.9996 46.1088 46.1088C46.9996 45.218 47.5 44.0098 47.5 42.75V38" stroke="#FFA500" stroke-width="3.66667" stroke-linecap="round" stroke-linejoin="round"/>
<path d="M16.625 28.5H40.375" stroke="#FFA500" stroke-width="3.66667" stroke-linecap="round" stroke-linejoin="round"/>
</svg>
