<svg width="11" height="11" viewBox="0 0 11 11" fill="none" xmlns="http://www.w3.org/2000/svg">
<path d="M5.5 0L5.6782 0.00054996L5.8531 0.00275006L6.1919 0.0121L6.35635 0.01925L6.6748 0.03795L6.97895 0.06325C9.6107 0.31845 10.6816 1.3893 10.9368 4.02105L10.9621 4.3252L10.9808 4.64365C10.9835 4.69755 10.9863 4.75255 10.9879 4.8081L10.9973 5.1469L11 5.5L10.9973 5.8531L10.9879 6.1919L10.9808 6.35635L10.9621 6.6748L10.9368 6.97895C10.6816 9.6107 9.6107 10.6816 6.97895 10.9368L6.6748 10.9621L6.35635 10.9808C6.30245 10.9835 6.24745 10.9863 6.1919 10.9879L5.8531 10.9973L5.5 11L5.1469 10.9973L4.8081 10.9879L4.64365 10.9808L4.3252 10.9621L4.02105 10.9368C1.3893 10.6816 0.31845 9.6107 0.06325 6.97895L0.03795 6.6748L0.01925 6.35635C0.0165744 6.30155 0.014191 6.24673 0.0121 6.1919L0.00275006 5.8531C0.00110006 5.7376 0 5.6199 0 5.5L0.00054996 5.3218L0.00275006 5.1469L0.0121 4.8081L0.01925 4.64365L0.03795 4.3252L0.06325 4.02105C0.31845 1.3893 1.3893 0.31845 4.02105 0.06325L4.3252 0.03795L4.64365 0.01925C4.69755 0.0165 4.75255 0.01375 4.8081 0.0121L5.1469 0.00275006C5.2624 0.00110006 5.3801 0 5.5 0ZM5.5 3.3C5.35413 3.3 5.21424 3.35795 5.11109 3.46109C5.00795 3.56424 4.95 3.70413 4.95 3.85V4.95H3.85L3.78565 4.95385C3.64645 4.97041 3.51882 5.03949 3.42885 5.14699C3.33887 5.25449 3.29334 5.39229 3.30156 5.53223C3.30977 5.67218 3.37111 5.8037 3.47305 5.89993C3.57498 5.99617 3.70982 6.04984 3.85 6.05H4.95V7.15L4.95385 7.21435C4.97041 7.35355 5.03949 7.48118 5.14699 7.57115C5.25449 7.66113 5.39229 7.70666 5.53223 7.69844C5.67218 7.69023 5.8037 7.62889 5.89993 7.52695C5.99617 7.42502 6.04984 7.29018 6.05 7.15V6.05H7.15L7.21435 6.04615C7.35355 6.02959 7.48118 5.96051 7.57115 5.85301C7.66113 5.74551 7.70666 5.60771 7.69844 5.46777C7.69023 5.32782 7.62889 5.1963 7.52695 5.10007C7.42502 5.00383 7.29018 4.95016 7.15 4.95H6.05V3.85L6.04615 3.78565C6.03039 3.65186 5.96607 3.52851 5.86541 3.43899C5.76474 3.34948 5.63471 3.30002 5.5 3.3Z" fill="#FF0707"/>
</svg>
